<?xml version="1.0" encoding="UTF-8"?>
<svg xmlns="http://www.w3.org/2000/svg" xmlns:xlink="http://www.w3.org/1999/xlink" width="10pt" height="10pt" viewBox="0 0 10 10" version="1.1">
<g id="surface1">
<path style=" stroke:none;fill-rule:nonzero;fill:rgb(93.72549%,91.764706%,91.764706%);fill-opacity:1;" d="M 8.710938 3.761719 L 6.109375 3.761719 L 6.109375 1.160156 C 6.109375 0.523438 5.570312 0 4.933594 0 C 4.296875 0 3.761719 0.523438 3.761719 1.160156 L 3.761719 3.761719 L 1.160156 3.761719 C 0.523438 3.761719 0 4.296875 0 4.933594 C 0 5.570312 0.523438 6.109375 1.160156 6.109375 L 3.761719 6.109375 L 3.761719 8.710938 C 3.761719 9.347656 4.296875 9.867188 4.933594 9.867188 C 5.570312 9.867188 6.109375 9.347656 6.109375 8.710938 L 6.109375 6.109375 L 8.710938 6.109375 C 9.347656 6.109375 9.867188 5.570312 9.867188 4.933594 C 9.867188 4.296875 9.347656 3.761719 8.710938 3.761719 Z M 8.710938 3.761719 "/>
</g>
</svg>
