<?xml version="1.0" encoding="UTF-8"?>
<svg xmlns="http://www.w3.org/2000/svg" xmlns:xlink="http://www.w3.org/1999/xlink" width="10pt" height="10pt" viewBox="0 0 10 10" version="1.1">
<g id="surface1">
<path style=" stroke:none;fill-rule:nonzero;fill:rgb(92.941176%,90.196078%,90.196078%);fill-opacity:1;" d="M 9.9375 0.0625 C 9.898438 0.0234375 9.847656 0.00390625 9.792969 0.00390625 C 8.726562 0.00390625 7.847656 0.148438 7.152344 0.4375 C 6.457031 0.726562 5.726562 1.253906 4.960938 2.019531 C 4.632812 2.347656 4.273438 2.746094 3.882812 3.210938 L 1.5625 3.335938 C 1.496094 3.34375 1.441406 3.375 1.402344 3.433594 L 0.03125 5.785156 C -0.0195312 5.867188 -0.0078125 5.945312 0.0625 6.023438 L 0.453125 6.414062 C 0.488281 6.453125 0.535156 6.46875 0.59375 6.46875 C 0.617188 6.46875 0.636719 6.46875 0.648438 6.464844 L 2.339844 5.941406 L 4.058594 7.664062 L 3.539062 9.355469 C 3.519531 9.425781 3.535156 9.492188 3.589844 9.550781 L 3.980469 9.941406 C 4.023438 9.980469 4.070312 9.996094 4.121094 9.996094 C 4.15625 9.996094 4.191406 9.988281 4.21875 9.972656 L 6.570312 8.601562 C 6.628906 8.558594 6.660156 8.507812 6.667969 8.441406 L 6.792969 6.121094 C 7.257812 5.730469 7.65625 5.371094 7.984375 5.042969 C 8.710938 4.3125 9.230469 3.578125 9.539062 2.835938 C 9.847656 2.09375 10 1.214844 10 0.199219 C 10 0.144531 9.980469 0.101562 9.9375 0.0625 Z M 8.457031 2.378906 C 8.34375 2.492188 8.203125 2.550781 8.039062 2.550781 C 7.878906 2.550781 7.738281 2.492188 7.625 2.378906 C 7.507812 2.265625 7.453125 2.125 7.453125 1.960938 C 7.453125 1.800781 7.507812 1.660156 7.625 1.546875 C 7.738281 1.433594 7.878906 1.375 8.039062 1.375 C 8.203125 1.375 8.34375 1.433594 8.457031 1.546875 C 8.570312 1.660156 8.628906 1.800781 8.628906 1.960938 C 8.628906 2.125 8.570312 2.265625 8.457031 2.378906 Z M 8.457031 2.378906 "/>
</g>
</svg>
